<svg xmlns="http://www.w3.org/2000/svg" viewBox="0 0 106.96 106.96"><defs><style>.cls-1{fill:none;stroke:#44a1f8;stroke-miterlimit:10;stroke-width:6px;}.cls-2{fill:#09f;}</style></defs><g id="图层_2" data-name="图层 2"><g id="图层_1-2" data-name="图层 1"><circle class="cls-1" cx="53.48" cy="53.48" r="50.48"/><path class="cls-2" d="M85.87,47.06C76.61,28.49,53.63,18.14,53.63,18.14V50.28a25.87,25.87,0,0,0-5.58-.6A19.48,19.48,0,0,0,28.43,69.25a18.81,18.81,0,0,0,5.66,14c3.77,3.72,14.15,5.58,14.15,5.58l0-13.9H48a5,5,0,0,1-3.74-1.51,5.55,5.55,0,0,1,4-9.33,4.82,4.82,0,0,1,3.91,1.76,7.24,7.24,0,0,1,1.46,4.74V88H67.71V69.58c0-.38,0-.74,0-1.11V39.9a21.48,21.48,0,0,1,6.41,2.56c6,3.69,7.14,9.33,8.1,14.09A40.24,40.24,0,0,1,82.92,69a27.8,27.8,0,0,0,3.84-9.14C87.21,57.38,88.57,52.48,85.87,47.06Z"/></g></g></svg>