<svg xmlns="http://www.w3.org/2000/svg" viewBox="0 0 68.59 68.59"><defs><style>.cls-1{fill:#44a1f8;stroke:#fff;stroke-miterlimit:10;}</style></defs><g id="图层_2" data-name="图层 2"><g id="图层_1-2" data-name="图层 1"><path class="cls-1" d="M34.29.5a33.8,33.8,0,1,0,33.8,33.79A33.83,33.83,0,0,0,34.29.5ZM30.13,48h8.32a14.09,14.09,0,0,1,13.17,9.1,28.66,28.66,0,0,1-34.65,0A14.07,14.07,0,0,1,30.13,48Zm8.32-5.18H30.13A19.28,19.28,0,0,0,13,53.37,28.62,28.62,0,1,1,62.91,34.29a28.41,28.41,0,0,1-7.28,19.08A19.31,19.31,0,0,0,38.45,42.8Z"/><path class="cls-1" d="M34.29,13A14.38,14.38,0,1,0,48.67,27.36,14.39,14.39,0,0,0,34.29,13ZM43.5,27.36a9.21,9.21,0,1,1-9.21-9.2A9.22,9.22,0,0,1,43.5,27.36Z"/></g></g></svg>